<svg width="688" height="263" viewBox="0 0 688 263" fill="none" xmlns="http://www.w3.org/2000/svg">
<path d="M0 260.1V2.40001H51.3V94.5H75.6V2.40001H126.9V260.1H75.6V143.1H51.3V260.1H0Z" fill="#E5F77D"/>
<path d="M211.207 262.5C190.407 262.5 174.607 256.2 163.807 243.6C153.007 230.8 147.607 212.9 147.607 189.9V67.2C147.607 45 153.007 28.3 163.807 17.1C174.607 5.7 190.407 0 211.207 0C232.007 0 247.807 5.7 258.607 17.1C269.407 28.3 274.807 45 274.807 67.2V189.9C274.807 213.1 269.407 231 258.607 243.6C247.807 256.2 232.007 262.5 211.207 262.5ZM211.207 215.1C215.807 215.1 218.907 213.1 220.507 209.1C222.107 205.1 222.907 199.5 222.907 192.3V66.3C222.907 60.7 222.107 56.2 220.507 52.8C219.107 49.2 216.107 47.4 211.507 47.4C202.907 47.4 198.607 53.9 198.607 66.9V192.6C198.607 200 199.507 205.6 201.307 209.4C203.107 213.2 206.407 215.1 211.207 215.1Z" fill="#E5F77D"/>
<path d="M295.605 2.40001H374.805C387.405 2.40001 397.105 5.3 403.905 11.1C410.905 16.7 415.605 24.7 418.005 35.1C420.405 45.3 421.605 58.4 421.605 74.4C421.605 89 419.705 100.4 415.905 108.6C412.105 116.8 405.505 122.5 396.105 125.7C403.905 127.3 409.505 131.2 412.905 137.4C416.505 143.6 418.305 152 418.305 162.6L417.705 260.1H367.305V159.3C367.305 152.1 365.905 147.5 363.105 145.5C360.305 143.5 355.205 142.5 347.805 142.5V260.1H295.605V2.40001ZM360.405 97.8C367.605 97.8 371.205 90 371.205 74.4C371.205 67.6 370.905 62.5 370.305 59.1C369.705 55.7 368.605 53.4 367.005 52.2C365.405 50.8 363.105 50.1 360.105 50.1H348.105V97.8H360.405Z" fill="#E5F77D"/>
<path d="M460.774 260.1V51.9H430.174V2.40001H542.974V51.9H512.374V260.1H460.774Z" fill="#E5F77D"/>
<path d="M550.62 260.1L575.52 2.40001H662.82L687.419 260.1H638.52L634.919 218.4H603.719L600.719 260.1H550.62ZM607.62 177.3H631.02L619.62 46.2H617.219L607.62 177.3Z" fill="#E5F77D"/>
</svg>
