<svg width="322" height="124" viewBox="0 0 322 124" fill="none" xmlns="http://www.w3.org/2000/svg">
<g id="HORTA">
<path d="M0.320007 122V1.74H24.26V44.72H35.6V1.74H59.54V122H35.6V67.4H24.26V122H0.320007Z" fill="#E5F77D"/>
<path d="M98.8833 123.12C89.1766 123.12 81.8033 120.18 76.7633 114.3C71.7233 108.327 69.2033 99.9733 69.2033 89.24V31.98C69.2033 21.62 71.7233 13.8267 76.7633 8.59999C81.8033 3.27999 89.1766 0.619995 98.8833 0.619995C108.59 0.619995 115.963 3.27999 121.003 8.59999C126.043 13.8267 128.563 21.62 128.563 31.98V89.24C128.563 100.067 126.043 108.42 121.003 114.3C115.963 120.18 108.59 123.12 98.8833 123.12ZM98.8833 101C101.03 101 102.477 100.067 103.223 98.2C103.97 96.3333 104.343 93.72 104.343 90.36V31.56C104.343 28.9467 103.97 26.8467 103.223 25.26C102.57 23.58 101.17 22.74 99.0233 22.74C95.01 22.74 93.0033 25.7733 93.0033 31.84V90.5C93.0033 93.9533 93.4233 96.5667 94.2633 98.34C95.1033 100.113 96.6433 101 98.8833 101Z" fill="#E5F77D"/>
<path d="M138.269 1.74H175.229C181.109 1.74 185.636 3.09333 188.809 5.8C192.076 8.41333 194.269 12.1467 195.389 17C196.509 21.76 197.069 27.8733 197.069 35.34C197.069 42.1533 196.183 47.4733 194.409 51.3C192.636 55.1267 189.556 57.7867 185.169 59.28C188.809 60.0267 191.423 61.8467 193.009 64.74C194.689 67.6333 195.529 71.5533 195.529 76.5L195.249 122H171.729V74.96C171.729 71.6 171.076 69.4533 169.769 68.52C168.463 67.5867 166.083 67.12 162.629 67.12V122H138.269V1.74ZM168.509 46.26C171.869 46.26 173.549 42.62 173.549 35.34C173.549 32.1667 173.409 29.7867 173.129 28.2C172.849 26.6133 172.336 25.54 171.589 24.98C170.843 24.3267 169.769 24 168.369 24H162.769V46.26H168.509Z" fill="#E5F77D"/>
<path d="M215.348 122V24.84H201.068V1.74H253.708V24.84H239.428V122H215.348Z" fill="#E5F77D"/>
<path d="M257.276 122L268.896 1.74H309.636L321.116 122H298.296L296.616 102.54H282.056L280.656 122H257.276ZM283.876 83.36H294.796L289.476 22.18H288.356L283.876 83.36Z" fill="#E5F77D"/>
</g>
</svg>
